# MagicaVoxel @ Ephtracy

# group
o 

# material
mtllib G.mtl
usemtl palette

# normals
vn -1 0 0
vn 1 0 0
vn 0 0 1
vn 0 0 -1
vn 0 -1 0
vn 0 1 0

# texcoords
vt 0.634766 0.5
vt 0.681641 0.5
vt 0.919922 0.5

# verts
v -1.4 0.8 -1.7
v -1.4 0.8 -1.8
v -1.4 0.8 -1.9
v -1.4 0.8 -2
v -1.4 1.7 -1.7
v -1.4 1.7 -1.8
v -1.4 1.7 -1.9
v -1.4 1.7 -2
v -1.1 1.1 -1.7
v -1.1 1.1 -1.8
v -1.1 1.1 -1.9
v -1.1 1.1 -2
v -1.1 1.2 -1.7
v -1.1 1.2 -1.8
v -1.1 1.2 -1.9
v -1.1 1.2 -2
v -0.8 0.9 -1.7
v -0.8 0.9 -1.8
v -0.8 0.9 -1.9
v -0.8 0.9 -2
v -0.8 1.1 -1.7
v -0.8 1.1 -1.8
v -0.8 1.1 -1.9
v -0.8 1.1 -2
v -1.3 0.9 -1.7
v -1.3 0.9 -1.8
v -1.3 0.9 -1.9
v -1.3 0.9 -2
v -1.3 1.6 -1.7
v -1.3 1.6 -1.8
v -1.3 1.6 -1.9
v -1.3 1.6 -2
v -0.8 0.8 -1.7
v -0.8 0.8 -1.8
v -0.8 0.8 -1.9
v -0.8 0.8 -2
v -0.8 0.9 -1.7
v -0.8 0.9 -1.8
v -0.8 0.9 -1.9
v -0.8 0.9 -2
v -0.7 0.9 -1.7
v -0.7 0.9 -1.8
v -0.7 0.9 -1.9
v -0.7 0.9 -2
v -0.7 1.2 -1.7
v -0.7 1.2 -1.8
v -0.7 1.2 -1.9
v -0.7 1.2 -2
v -0.7 1.6 -1.7
v -0.7 1.6 -1.8
v -0.7 1.6 -1.9
v -0.7 1.6 -2
v -0.7 1.7 -1.7
v -0.7 1.7 -1.8
v -0.7 1.7 -1.9
v -0.7 1.7 -2
v -1.4 0.8 -1.7
v -1.4 1.7 -1.7
v -1.3 0.9 -1.7
v -1.3 1.6 -1.7
v -1.1 1.1 -1.7
v -1.1 1.2 -1.7
v -0.8 0.8 -1.7
v -0.8 0.9 -1.7
v -0.8 1.1 -1.7
v -0.7 0.9 -1.7
v -0.7 1.2 -1.7
v -0.7 1.6 -1.7
v -0.7 1.7 -1.7
v -1.4 0.8 -2
v -1.4 1.7 -2
v -1.3 0.9 -2
v -1.3 1.6 -2
v -1.1 1.1 -2
v -1.1 1.2 -2
v -0.8 0.8 -2
v -0.8 0.9 -2
v -0.8 1.1 -2
v -0.7 0.9 -2
v -0.7 1.2 -2
v -0.7 1.6 -2
v -0.7 1.7 -2
v -1.4 0.8 -1.7
v -0.8 0.8 -1.7
v -1.4 0.8 -1.8
v -0.8 0.8 -1.8
v -1.4 0.8 -1.9
v -0.8 0.8 -1.9
v -1.4 0.8 -2
v -0.8 0.8 -2
v -0.8 0.9 -1.7
v -0.7 0.9 -1.7
v -0.8 0.9 -1.8
v -0.7 0.9 -1.8
v -0.8 0.9 -1.9
v -0.7 0.9 -1.9
v -0.8 0.9 -2
v -0.7 0.9 -2
v -1.1 1.1 -1.7
v -0.8 1.1 -1.7
v -1.1 1.1 -1.8
v -0.8 1.1 -1.8
v -1.1 1.1 -1.9
v -0.8 1.1 -1.9
v -1.1 1.1 -2
v -0.8 1.1 -2
v -1.3 1.6 -1.7
v -0.7 1.6 -1.7
v -1.3 1.6 -1.8
v -0.7 1.6 -1.8
v -1.3 1.6 -1.9
v -0.7 1.6 -1.9
v -1.3 1.6 -2
v -0.7 1.6 -2
v -1.3 0.9 -1.7
v -0.8 0.9 -1.7
v -1.3 0.9 -1.8
v -0.8 0.9 -1.8
v -1.3 0.9 -1.9
v -0.8 0.9 -1.9
v -1.3 0.9 -2
v -0.8 0.9 -2
v -1.1 1.2 -1.7
v -0.7 1.2 -1.7
v -1.1 1.2 -1.8
v -0.7 1.2 -1.8
v -1.1 1.2 -1.9
v -0.7 1.2 -1.9
v -1.1 1.2 -2
v -0.7 1.2 -2
v -1.4 1.7 -1.7
v -0.7 1.7 -1.7
v -1.4 1.7 -1.8
v -0.7 1.7 -1.8
v -1.4 1.7 -1.9
v -0.7 1.7 -1.9
v -1.4 1.7 -2
v -0.7 1.7 -2

# faces
f 5/3/1 2/3/1 1/3/1
f 6/1/1 3/1/1 2/1/1
f 6/3/1 2/3/1 5/3/1
f 7/2/1 4/2/1 3/2/1
f 7/1/1 3/1/1 6/1/1
f 8/2/1 4/2/1 7/2/1
f 13/3/1 10/3/1 9/3/1
f 14/1/1 11/1/1 10/1/1
f 14/3/1 10/3/1 13/3/1
f 15/2/1 12/2/1 11/2/1
f 15/1/1 11/1/1 14/1/1
f 16/2/1 12/2/1 15/2/1
f 21/3/1 18/3/1 17/3/1
f 22/1/1 19/1/1 18/1/1
f 22/3/1 18/3/1 21/3/1
f 23/2/1 20/2/1 19/2/1
f 23/1/1 19/1/1 22/1/1
f 24/2/1 20/2/1 23/2/1
f 25/3/2 26/3/2 29/3/2
f 26/1/2 27/1/2 30/1/2
f 29/3/2 26/3/2 30/3/2
f 27/2/2 28/2/2 31/2/2
f 30/1/2 27/1/2 31/1/2
f 31/2/2 28/2/2 32/2/2
f 33/3/2 34/3/2 37/3/2
f 34/1/2 35/1/2 38/1/2
f 37/3/2 34/3/2 38/3/2
f 35/2/2 36/2/2 39/2/2
f 38/1/2 35/1/2 39/1/2
f 39/2/2 36/2/2 40/2/2
f 41/3/2 42/3/2 45/3/2
f 42/1/2 43/1/2 46/1/2
f 45/3/2 42/3/2 46/3/2
f 43/2/2 44/2/2 47/2/2
f 46/1/2 43/1/2 47/1/2
f 47/2/2 44/2/2 48/2/2
f 49/3/2 50/3/2 53/3/2
f 50/1/2 51/1/2 54/1/2
f 53/3/2 50/3/2 54/3/2
f 51/2/2 52/2/2 55/2/2
f 54/1/2 51/1/2 55/1/2
f 55/2/2 52/2/2 56/2/2
f 59/3/3 58/3/3 57/3/3
f 60/3/3 58/3/3 59/3/3
f 63/3/3 59/3/3 57/3/3
f 64/3/3 59/3/3 63/3/3
f 65/3/3 62/3/3 61/3/3
f 66/3/3 65/3/3 64/3/3
f 67/3/3 62/3/3 65/3/3
f 67/3/3 65/3/3 66/3/3
f 68/3/3 58/3/3 60/3/3
f 69/3/3 58/3/3 68/3/3
f 70/2/4 71/2/4 72/2/4
f 72/2/4 71/2/4 73/2/4
f 70/2/4 72/2/4 76/2/4
f 76/2/4 72/2/4 77/2/4
f 74/2/4 75/2/4 78/2/4
f 77/2/4 78/2/4 79/2/4
f 78/2/4 75/2/4 80/2/4
f 79/2/4 78/2/4 80/2/4
f 73/2/4 71/2/4 81/2/4
f 81/2/4 71/2/4 82/2/4
f 85/3/5 84/3/5 83/3/5
f 86/3/5 84/3/5 85/3/5
f 87/1/5 86/1/5 85/1/5
f 88/1/5 86/1/5 87/1/5
f 89/2/5 88/2/5 87/2/5
f 90/2/5 88/2/5 89/2/5
f 93/3/5 92/3/5 91/3/5
f 94/3/5 92/3/5 93/3/5
f 95/1/5 94/1/5 93/1/5
f 96/1/5 94/1/5 95/1/5
f 97/2/5 96/2/5 95/2/5
f 98/2/5 96/2/5 97/2/5
f 101/3/5 100/3/5 99/3/5
f 102/3/5 100/3/5 101/3/5
f 103/1/5 102/1/5 101/1/5
f 104/1/5 102/1/5 103/1/5
f 105/2/5 104/2/5 103/2/5
f 106/2/5 104/2/5 105/2/5
f 109/3/5 108/3/5 107/3/5
f 110/3/5 108/3/5 109/3/5
f 111/1/5 110/1/5 109/1/5
f 112/1/5 110/1/5 111/1/5
f 113/2/5 112/2/5 111/2/5
f 114/2/5 112/2/5 113/2/5
f 115/3/6 116/3/6 117/3/6
f 117/3/6 116/3/6 118/3/6
f 117/1/6 118/1/6 119/1/6
f 119/1/6 118/1/6 120/1/6
f 119/2/6 120/2/6 121/2/6
f 121/2/6 120/2/6 122/2/6
f 123/3/6 124/3/6 125/3/6
f 125/3/6 124/3/6 126/3/6
f 125/1/6 126/1/6 127/1/6
f 127/1/6 126/1/6 128/1/6
f 127/2/6 128/2/6 129/2/6
f 129/2/6 128/2/6 130/2/6
f 131/3/6 132/3/6 133/3/6
f 133/3/6 132/3/6 134/3/6
f 133/1/6 134/1/6 135/1/6
f 135/1/6 134/1/6 136/1/6
f 135/2/6 136/2/6 137/2/6
f 137/2/6 136/2/6 138/2/6
