# MagicaVoxel @ Ephtracy

# group
o 

# material
mtllib T.mtl
usemtl palette

# normals
vn -1 0 0
vn 1 0 0
vn 0 0 1
vn 0 0 -1
vn 0 -1 0
vn 0 1 0

# texcoords
vt 0.634766 0.5
vt 0.681641 0.5
vt 0.919922 0.5

# verts
v -1.4 1.4 -1.7
v -1.4 1.4 -1.8
v -1.4 1.4 -1.9
v -1.4 1.4 -2
v -1.4 1.7 -1.7
v -1.4 1.7 -1.8
v -1.4 1.7 -1.9
v -1.4 1.7 -2
v -1.2 0.8 -1.7
v -1.2 0.8 -1.8
v -1.2 0.8 -1.9
v -1.2 0.8 -2
v -1.2 0.9 -1.9
v -1.2 0.9 -2
v -1.2 1.6 -1.7
v -1.2 1.6 -1.8
v -1.2 1.6 -1.9
v -1.2 1.6 -2
v -0.9 1.4 -1.7
v -0.9 1.4 -1.8
v -0.9 1.4 -1.9
v -0.9 1.4 -2
v -0.9 1.6 -1.7
v -0.9 1.6 -1.8
v -0.9 1.6 -1.9
v -0.9 1.6 -2
v -1.3 1.4 -1.7
v -1.3 1.4 -1.8
v -1.3 1.4 -1.9
v -1.3 1.4 -2
v -1.3 1.6 -1.7
v -1.3 1.6 -1.8
v -1.3 1.6 -1.9
v -1.3 1.6 -2
v -1 0.8 -1.7
v -1 0.8 -1.8
v -1 0.8 -1.9
v -1 0.8 -2
v -1 1.6 -1.7
v -1 1.6 -1.8
v -1 1.6 -1.9
v -1 1.6 -2
v -0.8 1.4 -1.7
v -0.8 1.4 -1.8
v -0.8 1.4 -1.9
v -0.8 1.4 -2
v -0.8 1.6 -1.9
v -0.8 1.6 -2
v -0.8 1.7 -1.7
v -0.8 1.7 -1.8
v -0.8 1.7 -1.9
v -0.8 1.7 -2
v -1.4 1.4 -1.7
v -1.4 1.7 -1.7
v -1.3 1.4 -1.7
v -1.3 1.6 -1.7
v -1.2 0.8 -1.7
v -1.2 1.6 -1.7
v -1 0.8 -1.7
v -1 1.6 -1.7
v -0.9 1.4 -1.7
v -0.9 1.6 -1.7
v -0.8 1.4 -1.7
v -0.8 1.7 -1.7
v -1.4 1.4 -2
v -1.4 1.7 -2
v -1.3 1.4 -2
v -1.3 1.6 -2
v -1.2 0.8 -2
v -1.2 0.9 -2
v -1.2 1.6 -2
v -1.1 0.8 -2
v -1.1 0.9 -2
v -1 0.8 -2
v -1 1.6 -2
v -0.9 1.4 -2
v -0.9 1.6 -2
v -0.8 1.4 -2
v -0.8 1.6 -2
v -0.8 1.7 -2
v -1.2 0.8 -1.7
v -1 0.8 -1.7
v -1.2 0.8 -1.8
v -1 0.8 -1.8
v -1.2 0.8 -1.9
v -1.1 0.8 -1.9
v -1 0.8 -1.9
v -1.2 0.8 -2
v -1.1 0.8 -2
v -1 0.8 -2
v -1.4 1.4 -1.7
v -1.3 1.4 -1.7
v -0.9 1.4 -1.7
v -0.8 1.4 -1.7
v -1.4 1.4 -1.8
v -1.3 1.4 -1.8
v -0.9 1.4 -1.8
v -0.8 1.4 -1.8
v -1.4 1.4 -1.9
v -1.3 1.4 -1.9
v -0.9 1.4 -1.9
v -0.8 1.4 -1.9
v -1.4 1.4 -2
v -1.3 1.4 -2
v -0.9 1.4 -2
v -0.8 1.4 -2
v -1.3 1.6 -1.7
v -1.2 1.6 -1.7
v -1 1.6 -1.7
v -0.9 1.6 -1.7
v -1.3 1.6 -1.8
v -1.2 1.6 -1.8
v -1 1.6 -1.8
v -0.9 1.6 -1.8
v -1.3 1.6 -1.9
v -1.2 1.6 -1.9
v -1 1.6 -1.9
v -0.9 1.6 -1.9
v -1.3 1.6 -2
v -1.2 1.6 -2
v -1 1.6 -2
v -0.9 1.6 -2
v -1.4 1.7 -1.7
v -0.8 1.7 -1.7
v -1.4 1.7 -1.8
v -0.8 1.7 -1.8
v -1.4 1.7 -1.9
v -0.8 1.7 -1.9
v -1.4 1.7 -2
v -0.8 1.7 -2

# faces
f 5/3/1 2/3/1 1/3/1
f 6/1/1 3/1/1 2/1/1
f 6/3/1 2/3/1 5/3/1
f 7/2/1 4/2/1 3/2/1
f 7/1/1 3/1/1 6/1/1
f 8/2/1 4/2/1 7/2/1
f 13/1/1 11/1/1 10/1/1
f 13/2/1 12/2/1 11/2/1
f 14/2/1 12/2/1 13/2/1
f 15/3/1 10/3/1 9/3/1
f 16/1/1 13/1/1 10/1/1
f 16/3/1 10/3/1 15/3/1
f 17/3/1 14/3/1 13/3/1
f 17/1/1 13/1/1 16/1/1
f 18/3/1 14/3/1 17/3/1
f 23/3/1 20/3/1 19/3/1
f 24/1/1 21/1/1 20/1/1
f 24/3/1 20/3/1 23/3/1
f 25/3/1 22/3/1 21/3/1
f 25/1/1 21/1/1 24/1/1
f 26/3/1 22/3/1 25/3/1
f 27/3/2 28/3/2 31/3/2
f 28/1/2 29/1/2 32/1/2
f 31/3/2 28/3/2 32/3/2
f 29/2/2 30/2/2 33/2/2
f 32/1/2 29/1/2 33/1/2
f 33/2/2 30/2/2 34/2/2
f 35/3/2 36/3/2 39/3/2
f 36/1/2 37/1/2 40/1/2
f 39/3/2 36/3/2 40/3/2
f 37/3/2 38/3/2 41/3/2
f 40/1/2 37/1/2 41/1/2
f 41/3/2 38/3/2 42/3/2
f 44/1/2 45/1/2 47/1/2
f 45/3/2 46/3/2 47/3/2
f 47/3/2 46/3/2 48/3/2
f 43/3/2 44/3/2 49/3/2
f 44/1/2 47/1/2 50/1/2
f 49/3/2 44/3/2 50/3/2
f 47/2/2 48/2/2 51/2/2
f 50/1/2 47/1/2 51/1/2
f 51/2/2 48/2/2 52/2/2
f 55/3/3 54/3/3 53/3/3
f 56/3/3 54/3/3 55/3/3
f 58/3/3 54/3/3 56/3/3
f 59/3/3 58/3/3 57/3/3
f 60/3/3 54/3/3 58/3/3
f 60/3/3 58/3/3 59/3/3
f 62/3/3 54/3/3 60/3/3
f 63/3/3 62/3/3 61/3/3
f 64/3/3 54/3/3 62/3/3
f 64/3/3 62/3/3 63/3/3
f 65/2/4 66/2/4 67/2/4
f 67/2/4 66/2/4 68/2/4
f 68/2/4 66/2/4 71/2/4
f 69/2/4 70/2/4 72/2/4
f 70/3/4 71/3/4 73/3/4
f 72/2/4 70/2/4 73/2/4
f 72/3/4 73/3/4 74/3/4
f 71/2/4 66/2/4 75/2/4
f 74/3/4 73/3/4 75/3/4
f 73/3/4 71/3/4 75/3/4
f 75/2/4 66/2/4 77/2/4
f 76/3/4 77/3/4 78/3/4
f 77/2/4 66/2/4 79/2/4
f 78/3/4 77/3/4 79/3/4
f 79/2/4 66/2/4 80/2/4
f 83/3/5 82/3/5 81/3/5
f 84/3/5 82/3/5 83/3/5
f 85/1/5 84/1/5 83/1/5
f 86/1/5 84/1/5 85/1/5
f 87/1/5 84/1/5 86/1/5
f 88/2/5 86/2/5 85/2/5
f 89/3/5 87/3/5 86/3/5
f 89/2/5 86/2/5 88/2/5
f 90/3/5 87/3/5 89/3/5
f 95/3/5 92/3/5 91/3/5
f 96/3/5 92/3/5 95/3/5
f 97/3/5 94/3/5 93/3/5
f 98/3/5 94/3/5 97/3/5
f 99/1/5 96/1/5 95/1/5
f 100/1/5 96/1/5 99/1/5
f 101/1/5 98/1/5 97/1/5
f 102/1/5 98/1/5 101/1/5
f 103/2/5 100/2/5 99/2/5
f 104/2/5 100/2/5 103/2/5
f 105/3/5 102/3/5 101/3/5
f 106/3/5 102/3/5 105/3/5
f 111/3/5 108/3/5 107/3/5
f 112/3/5 108/3/5 111/3/5
f 113/3/5 110/3/5 109/3/5
f 114/3/5 110/3/5 113/3/5
f 115/1/5 112/1/5 111/1/5
f 116/1/5 112/1/5 115/1/5
f 117/1/5 114/1/5 113/1/5
f 118/1/5 114/1/5 117/1/5
f 119/2/5 116/2/5 115/2/5
f 120/2/5 116/2/5 119/2/5
f 121/2/5 118/2/5 117/2/5
f 122/2/5 118/2/5 121/2/5
f 123/3/6 124/3/6 125/3/6
f 125/3/6 124/3/6 126/3/6
f 125/1/6 126/1/6 127/1/6
f 127/1/6 126/1/6 128/1/6
f 127/2/6 128/2/6 129/2/6
f 129/2/6 128/2/6 130/2/6
