# MagicaVoxel @ Ephtracy

# group
o 

# material
mtllib Y.mtl
usemtl palette

# normals
vn -1 0 0
vn 1 0 0
vn 0 0 1
vn 0 0 -1
vn 0 -1 0
vn 0 1 0

# texcoords
vt 0.634766 0.5
vt 0.728516 0.5
vt 0.822266 0.5
vt 0.919922 0.5

# verts
v -1.4 1.5 -1.7
v -1.4 1.5 -1.8
v -1.4 1.5 -1.9
v -1.4 1.5 -2
v -1.4 1.6 -1.9
v -1.4 1.6 -2
v -1.4 1.7 -1.7
v -1.4 1.7 -1.8
v -1.4 1.7 -1.9
v -1.4 1.7 -2
v -1.3 1.4 -1.7
v -1.3 1.4 -1.8
v -1.3 1.4 -1.9
v -1.3 1.4 -2
v -1.3 1.5 -1.7
v -1.3 1.5 -1.8
v -1.3 1.5 -1.9
v -1.3 1.5 -2
v -1.2 0.8 -1.7
v -1.2 0.8 -1.8
v -1.2 0.8 -1.9
v -1.2 0.8 -2
v -1.2 1.2 -1.9
v -1.2 1.2 -2
v -1.2 1.3 -1.9
v -1.2 1.3 -2
v -1.2 1.4 -1.7
v -1.2 1.4 -1.8
v -1.2 1.4 -1.9
v -1.2 1.4 -2
v -1 1.4 -1.7
v -1 1.4 -1.8
v -1 1.4 -1.9
v -1 1.4 -2
v -1 1.5 -1.7
v -1 1.5 -1.8
v -1 1.5 -1.9
v -1 1.5 -2
v -0.9 1.5 -1.7
v -0.9 1.5 -1.8
v -0.9 1.5 -1.9
v -0.9 1.5 -2
v -0.9 1.7 -1.7
v -0.9 1.7 -1.8
v -0.9 1.7 -1.9
v -0.9 1.7 -2
v -1.3 1.5 -1.7
v -1.3 1.5 -1.8
v -1.3 1.5 -1.9
v -1.3 1.5 -2
v -1.3 1.6 -1.9
v -1.3 1.6 -2
v -1.3 1.7 -1.7
v -1.3 1.7 -1.8
v -1.3 1.7 -1.9
v -1.3 1.7 -2
v -1.2 1.4 -1.7
v -1.2 1.4 -1.8
v -1.2 1.4 -1.9
v -1.2 1.4 -2
v -1.2 1.5 -1.7
v -1.2 1.5 -1.8
v -1.2 1.5 -1.9
v -1.2 1.5 -2
v -1 0.8 -1.7
v -1 0.8 -1.8
v -1 0.8 -1.9
v -1 0.8 -2
v -1 1.3 -1.8
v -1 1.3 -1.9
v -1 1.4 -1.7
v -1 1.4 -1.8
v -1 1.4 -1.9
v -1 1.4 -2
v -0.9 1.4 -1.7
v -0.9 1.4 -1.8
v -0.9 1.4 -1.9
v -0.9 1.4 -2
v -0.9 1.5 -1.7
v -0.9 1.5 -1.8
v -0.9 1.5 -1.9
v -0.9 1.5 -2
v -0.8 1.5 -1.7
v -0.8 1.5 -1.8
v -0.8 1.5 -1.9
v -0.8 1.5 -2
v -0.8 1.7 -1.7
v -0.8 1.7 -1.8
v -0.8 1.7 -1.9
v -0.8 1.7 -2
v -1.4 1.5 -1.7
v -1.4 1.7 -1.7
v -1.3 1.4 -1.7
v -1.3 1.5 -1.7
v -1.3 1.7 -1.7
v -1.2 0.8 -1.7
v -1.2 1.4 -1.7
v -1.2 1.5 -1.7
v -1 0.8 -1.7
v -1 1.4 -1.7
v -1 1.5 -1.7
v -0.9 1.4 -1.7
v -0.9 1.5 -1.7
v -0.9 1.7 -1.7
v -0.8 1.5 -1.7
v -0.8 1.7 -1.7
v -1.4 1.5 -2
v -1.4 1.6 -2
v -1.4 1.7 -2
v -1.3 1.4 -2
v -1.3 1.5 -2
v -1.3 1.6 -2
v -1.3 1.7 -2
v -1.2 0.8 -2
v -1.2 1.2 -2
v -1.2 1.3 -2
v -1.2 1.4 -2
v -1.2 1.5 -2
v -1.1 1.2 -2
v -1.1 1.3 -2
v -1 0.8 -2
v -1 1.4 -2
v -1 1.5 -2
v -0.9 1.4 -2
v -0.9 1.5 -2
v -0.9 1.7 -2
v -0.8 1.5 -2
v -0.8 1.7 -2
v -1.2 0.8 -1.7
v -1 0.8 -1.7
v -1.2 0.8 -1.8
v -1.1 0.8 -1.8
v -1 0.8 -1.8
v -1.2 0.8 -1.9
v -1.1 0.8 -1.9
v -1 0.8 -1.9
v -1.2 0.8 -2
v -1 0.8 -2
v -1.3 1.4 -1.7
v -1.2 1.4 -1.7
v -1 1.4 -1.7
v -0.9 1.4 -1.7
v -1.3 1.4 -1.8
v -1.2 1.4 -1.8
v -1 1.4 -1.8
v -0.9 1.4 -1.8
v -1.3 1.4 -1.9
v -1.2 1.4 -1.9
v -1 1.4 -1.9
v -0.9 1.4 -1.9
v -1.3 1.4 -2
v -1.2 1.4 -2
v -1 1.4 -2
v -0.9 1.4 -2
v -1.4 1.5 -1.7
v -1.3 1.5 -1.7
v -0.9 1.5 -1.7
v -0.8 1.5 -1.7
v -1.4 1.5 -1.8
v -1.3 1.5 -1.8
v -0.9 1.5 -1.8
v -0.8 1.5 -1.8
v -1.4 1.5 -1.9
v -1.3 1.5 -1.9
v -0.9 1.5 -1.9
v -0.8 1.5 -1.9
v -1.4 1.5 -2
v -1.3 1.5 -2
v -0.9 1.5 -2
v -0.8 1.5 -2
v -1.2 1.4 -1.7
v -1 1.4 -1.7
v -1.2 1.4 -1.8
v -1 1.4 -1.8
v -1.2 1.4 -1.9
v -1 1.4 -1.9
v -1.2 1.4 -2
v -1 1.4 -2
v -1.3 1.5 -1.7
v -1.2 1.5 -1.7
v -1 1.5 -1.7
v -0.9 1.5 -1.7
v -1.3 1.5 -1.8
v -1.2 1.5 -1.8
v -1 1.5 -1.8
v -0.9 1.5 -1.8
v -1.3 1.5 -1.9
v -1.2 1.5 -1.9
v -1 1.5 -1.9
v -0.9 1.5 -1.9
v -1.3 1.5 -2
v -1.2 1.5 -2
v -1 1.5 -2
v -0.9 1.5 -2
v -1.4 1.7 -1.7
v -1.3 1.7 -1.7
v -0.9 1.7 -1.7
v -0.8 1.7 -1.7
v -1.4 1.7 -1.8
v -1.3 1.7 -1.8
v -0.9 1.7 -1.8
v -0.8 1.7 -1.8
v -1.4 1.7 -1.9
v -1.3 1.7 -1.9
v -0.9 1.7 -1.9
v -0.8 1.7 -1.9
v -1.4 1.7 -2
v -1.3 1.7 -2
v -0.9 1.7 -2
v -0.8 1.7 -2

# faces
f 5/1/1 3/1/1 2/1/1
f 5/3/1 4/3/1 3/3/1
f 6/3/1 4/3/1 5/3/1
f 7/3/1 2/3/1 1/3/1
f 8/1/1 5/1/1 2/1/1
f 8/3/1 2/3/1 7/3/1
f 9/4/1 6/4/1 5/4/1
f 9/1/1 5/1/1 8/1/1
f 10/4/1 6/4/1 9/4/1
f 15/3/1 12/3/1 11/3/1
f 16/1/1 13/1/1 12/1/1
f 16/3/1 12/3/1 15/3/1
f 17/3/1 14/3/1 13/3/1
f 17/1/1 13/1/1 16/1/1
f 18/3/1 14/3/1 17/3/1
f 23/1/1 21/1/1 20/1/1
f 23/3/1 22/3/1 21/3/1
f 24/3/1 22/3/1 23/3/1
f 25/1/1 23/1/1 20/1/1
f 25/4/1 24/4/1 23/4/1
f 26/4/1 24/4/1 25/4/1
f 27/3/1 20/3/1 19/3/1
f 28/1/1 25/1/1 20/1/1
f 28/3/1 20/3/1 27/3/1
f 29/3/1 26/3/1 25/3/1
f 29/1/1 25/1/1 28/1/1
f 30/3/1 26/3/1 29/3/1
f 35/3/1 32/3/1 31/3/1
f 36/1/1 33/1/1 32/1/1
f 36/3/1 32/3/1 35/3/1
f 37/3/1 34/3/1 33/3/1
f 37/1/1 33/1/1 36/1/1
f 38/3/1 34/3/1 37/3/1
f 43/3/1 40/3/1 39/3/1
f 44/1/1 41/1/1 40/1/1
f 44/3/1 40/3/1 43/3/1
f 45/3/1 42/3/1 41/3/1
f 45/1/1 41/1/1 44/1/1
f 46/3/1 42/3/1 45/3/1
f 48/1/2 49/1/2 51/1/2
f 49/3/2 50/3/2 51/3/2
f 51/3/2 50/3/2 52/3/2
f 47/3/2 48/3/2 53/3/2
f 48/1/2 51/1/2 54/1/2
f 53/3/2 48/3/2 54/3/2
f 51/4/2 52/4/2 55/4/2
f 54/1/2 51/1/2 55/1/2
f 55/4/2 52/4/2 56/4/2
f 57/3/2 58/3/2 61/3/2
f 58/1/2 59/1/2 62/1/2
f 61/3/2 58/3/2 62/3/2
f 59/3/2 60/3/2 63/3/2
f 62/1/2 59/1/2 63/1/2
f 63/3/2 60/3/2 64/3/2
f 65/3/2 66/3/2 69/3/2
f 66/2/2 67/2/2 69/2/2
f 67/3/2 68/3/2 70/3/2
f 69/2/2 67/2/2 70/2/2
f 65/3/2 69/3/2 71/3/2
f 69/1/2 70/1/2 72/1/2
f 71/3/2 69/3/2 72/3/2
f 70/3/2 68/3/2 73/3/2
f 72/1/2 70/1/2 73/1/2
f 73/3/2 68/3/2 74/3/2
f 75/3/2 76/3/2 79/3/2
f 76/1/2 77/1/2 80/1/2
f 79/3/2 76/3/2 80/3/2
f 77/3/2 78/3/2 81/3/2
f 80/1/2 77/1/2 81/1/2
f 81/3/2 78/3/2 82/3/2
f 83/3/2 84/3/2 87/3/2
f 84/1/2 85/1/2 88/1/2
f 87/3/2 84/3/2 88/3/2
f 85/3/2 86/3/2 89/3/2
f 88/1/2 85/1/2 89/1/2
f 89/3/2 86/3/2 90/3/2
f 94/3/3 92/3/3 91/3/3
f 95/3/3 92/3/3 94/3/3
f 97/3/3 94/3/3 93/3/3
f 98/3/3 94/3/3 97/3/3
f 99/3/3 97/3/3 96/3/3
f 100/3/3 97/3/3 99/3/3
f 102/3/3 101/3/3 100/3/3
f 103/3/3 101/3/3 102/3/3
f 105/3/3 104/3/3 103/3/3
f 106/3/3 104/3/3 105/3/3
f 107/3/4 108/3/4 111/3/4
f 108/4/4 109/4/4 112/4/4
f 111/3/4 108/3/4 112/3/4
f 112/4/4 109/4/4 113/4/4
f 110/3/4 111/3/4 117/3/4
f 117/3/4 111/3/4 118/3/4
f 115/4/4 116/4/4 119/4/4
f 114/3/4 115/3/4 119/3/4
f 116/3/4 117/3/4 120/3/4
f 119/4/4 116/4/4 120/4/4
f 114/3/4 119/3/4 121/3/4
f 119/3/4 120/3/4 121/3/4
f 120/3/4 117/3/4 122/3/4
f 121/3/4 120/3/4 122/3/4
f 122/3/4 123/3/4 124/3/4
f 124/3/4 123/3/4 125/3/4
f 125/3/4 126/3/4 127/3/4
f 127/3/4 126/3/4 128/3/4
f 131/3/5 130/3/5 129/3/5
f 132/3/5 130/3/5 131/3/5
f 133/3/5 130/3/5 132/3/5
f 134/1/5 132/1/5 131/1/5
f 135/2/5 133/2/5 132/2/5
f 135/1/5 132/1/5 134/1/5
f 136/2/5 133/2/5 135/2/5
f 137/3/5 135/3/5 134/3/5
f 137/3/5 136/3/5 135/3/5
f 138/3/5 136/3/5 137/3/5
f 143/3/5 140/3/5 139/3/5
f 144/3/5 140/3/5 143/3/5
f 145/3/5 142/3/5 141/3/5
f 146/3/5 142/3/5 145/3/5
f 147/1/5 144/1/5 143/1/5
f 148/1/5 144/1/5 147/1/5
f 149/1/5 146/1/5 145/1/5
f 150/1/5 146/1/5 149/1/5
f 151/3/5 148/3/5 147/3/5
f 152/3/5 148/3/5 151/3/5
f 153/3/5 150/3/5 149/3/5
f 154/3/5 150/3/5 153/3/5
f 159/3/5 156/3/5 155/3/5
f 160/3/5 156/3/5 159/3/5
f 161/3/5 158/3/5 157/3/5
f 162/3/5 158/3/5 161/3/5
f 163/1/5 160/1/5 159/1/5
f 164/1/5 160/1/5 163/1/5
f 165/1/5 162/1/5 161/1/5
f 166/1/5 162/1/5 165/1/5
f 167/3/5 164/3/5 163/3/5
f 168/3/5 164/3/5 167/3/5
f 169/3/5 166/3/5 165/3/5
f 170/3/5 166/3/5 169/3/5
f 171/3/6 172/3/6 173/3/6
f 173/3/6 172/3/6 174/3/6
f 173/1/6 174/1/6 175/1/6
f 175/1/6 174/1/6 176/1/6
f 175/3/6 176/3/6 177/3/6
f 177/3/6 176/3/6 178/3/6
f 179/3/6 180/3/6 183/3/6
f 183/3/6 180/3/6 184/3/6
f 181/3/6 182/3/6 185/3/6
f 185/3/6 182/3/6 186/3/6
f 183/1/6 184/1/6 187/1/6
f 187/1/6 184/1/6 188/1/6
f 185/1/6 186/1/6 189/1/6
f 189/1/6 186/1/6 190/1/6
f 187/3/6 188/3/6 191/3/6
f 191/3/6 188/3/6 192/3/6
f 189/3/6 190/3/6 193/3/6
f 193/3/6 190/3/6 194/3/6
f 195/3/6 196/3/6 199/3/6
f 199/3/6 196/3/6 200/3/6
f 197/3/6 198/3/6 201/3/6
f 201/3/6 198/3/6 202/3/6
f 199/1/6 200/1/6 203/1/6
f 203/1/6 200/1/6 204/1/6
f 201/1/6 202/1/6 205/1/6
f 205/1/6 202/1/6 206/1/6
f 203/4/6 204/4/6 207/4/6
f 207/4/6 204/4/6 208/4/6
f 205/3/6 206/3/6 209/3/6
f 209/3/6 206/3/6 210/3/6
