# MagicaVoxel @ Ephtracy

# group
o 

# material
mtllib derevo.mtl
usemtl palette

# normals
vn -1 0 0
vn 1 0 0
vn 0 0 1
vn 0 0 -1
vn 0 -1 0
vn 0 1 0

# texcoords
vt 0.650391 0.5
vt 0.791016 0.5
vt 0.818359 0.5
vt 0.865234 0.5
vt 0.912109 0.5

# verts
v -1 1.8 0.9
v -1 1.8 -0.7
v -1 2 0.9
v -1 2 -0.7
v -1 2.3 0.9
v -1 2.3 -0.7
v -0.9 2.3 0.8
v -0.9 2.3 -0.6
v -0.9 2.6 0.8
v -0.9 2.6 -0.6
v -0.9 2.7 0.8
v -0.9 2.7 -0.6
v -0.8 2.7 0.7
v -0.8 2.7 -0.5
v -0.8 3 0.7
v -0.8 3 -0.5
v -0.7 3 0.6
v -0.7 3 -0.4
v -0.7 3.2 0.6
v -0.7 3.2 -0.4
v -0.6 3.2 0.5
v -0.6 3.2 -0.3
v -0.6 3.4 0.5
v -0.6 3.4 -0.3
v -0.5 3.4 0.4
v -0.5 3.4 -0.2
v -0.5 3.5 0.4
v -0.5 3.5 -0.2
v -0.4 0 0.4
v -0.4 0 -0.2
v -0.4 1.8 0.4
v -0.4 1.8 -0.2
v -0.4 3.5 0.3
v -0.4 3.5 -0.1
v -0.4 3.7 0.3
v -0.4 3.7 -0.1
v -0.3 3.7 0.2
v -0.3 3.7 0
v -0.3 3.9 0.2
v -0.3 3.9 0
v -0.2 3.9 0.2
v -0.2 3.9 0
v -0.2 4 0.2
v -0.2 4 0
v 0.3 1.9 0.5
v 0.3 1.9 -0.3
v 0.3 2 0.5
v 0.3 2 -0.3
v 0.3 2.6 0.5
v 0.3 2.6 -0.3
v 0.3 2.7 0.5
v 0.3 2.7 -0.3
v 0.3 2.8 0.5
v 0.3 2.8 -0.3
v -0.6 1.9 0.5
v -0.6 1.9 -0.3
v -0.6 2 0.5
v -0.6 2 -0.3
v -0.6 2.6 0.5
v -0.6 2.6 -0.3
v -0.6 2.7 0.5
v -0.6 2.7 -0.3
v -0.6 2.8 0.5
v -0.6 2.8 -0.3
v -0.0999999 3.9 0.2
v -0.0999999 3.9 0
v -0.0999999 4 0.2
v -0.0999999 4 0
v 1.19209e-007 3.7 0.2
v 1.19209e-007 3.7 0
v 1.19209e-007 3.9 0.2
v 1.19209e-007 3.9 0
v 0.1 0 0.4
v 0.1 0 -0.2
v 0.1 1.8 0.4
v 0.1 1.8 -0.2
v 0.1 3.5 0.3
v 0.1 3.5 -0.1
v 0.1 3.7 0.3
v 0.1 3.7 -0.1
v 0.2 3.4 0.4
v 0.2 3.4 -0.2
v 0.2 3.5 0.4
v 0.2 3.5 -0.2
v 0.3 3.2 0.5
v 0.3 3.2 -0.3
v 0.3 3.4 0.5
v 0.3 3.4 -0.3
v 0.4 3 0.6
v 0.4 3 -0.4
v 0.4 3.2 0.6
v 0.4 3.2 -0.4
v 0.5 2.7 0.7
v 0.5 2.7 -0.5
v 0.5 3 0.7
v 0.5 3 -0.5
v 0.6 2.3 0.8
v 0.6 2.3 -0.6
v 0.6 2.6 0.8
v 0.6 2.6 -0.6
v 0.6 2.7 0.8
v 0.6 2.7 -0.6
v 0.7 1.8 0.9
v 0.7 1.8 -0.7
v 0.7 2 0.9
v 0.7 2 -0.7
v 0.7 2.3 0.9
v 0.7 2.3 -0.7
v -1 1.8 0.9
v -1 2 0.9
v -1 2.3 0.9
v 0.7 1.8 0.9
v 0.7 2 0.9
v 0.7 2.3 0.9
v -0.9 2.3 0.8
v -0.9 2.6 0.8
v -0.9 2.7 0.8
v 0.6 2.3 0.8
v 0.6 2.6 0.8
v 0.6 2.7 0.8
v -0.8 2.7 0.7
v -0.8 3 0.7
v 0.5 2.7 0.7
v 0.5 3 0.7
v -0.7 3 0.6
v -0.7 3.2 0.6
v 0.4 3 0.6
v 0.4 3.2 0.6
v -0.6 3.2 0.5
v -0.6 3.4 0.5
v 0.3 3.2 0.5
v 0.3 3.4 0.5
v -0.5 3.4 0.4
v -0.5 3.5 0.4
v -0.4 0 0.4
v -0.4 1.8 0.4
v 0.1 0 0.4
v 0.1 1.8 0.4
v 0.2 3.4 0.4
v 0.2 3.5 0.4
v -0.4 3.5 0.3
v -0.4 3.7 0.3
v 0.1 3.5 0.3
v 0.1 3.7 0.3
v -0.3 3.7 0.2
v -0.3 3.9 0.2
v -0.2 3.9 0.2
v -0.2 4 0.2
v -0.0999999 3.9 0.2
v -0.0999999 4 0.2
v 1.19209e-007 3.7 0.2
v 1.19209e-007 3.9 0.2
v -0.6 1.9 -0.3
v -0.6 2 -0.3
v -0.6 2.6 -0.3
v -0.6 2.7 -0.3
v -0.6 2.8 -0.3
v 0.3 1.9 -0.3
v 0.3 2 -0.3
v 0.3 2.6 -0.3
v 0.3 2.7 -0.3
v 0.3 2.8 -0.3
v -0.6 1.9 0.5
v -0.6 2 0.5
v -0.6 2.6 0.5
v -0.6 2.7 0.5
v -0.6 2.8 0.5
v 0.3 1.9 0.5
v 0.3 2 0.5
v 0.3 2.6 0.5
v 0.3 2.7 0.5
v 0.3 2.8 0.5
v -0.3 3.7 0
v -0.3 3.9 0
v -0.2 3.9 0
v -0.2 4 0
v -0.0999999 3.9 0
v -0.0999999 4 0
v 1.19209e-007 3.7 0
v 1.19209e-007 3.9 0
v -0.4 3.5 -0.1
v -0.4 3.7 -0.1
v 0.1 3.5 -0.1
v 0.1 3.7 -0.1
v -0.5 3.4 -0.2
v -0.5 3.5 -0.2
v -0.4 0 -0.2
v -0.4 1.8 -0.2
v 0.1 0 -0.2
v 0.1 1.8 -0.2
v 0.2 3.4 -0.2
v 0.2 3.5 -0.2
v -0.6 3.2 -0.3
v -0.6 3.4 -0.3
v 0.3 3.2 -0.3
v 0.3 3.4 -0.3
v -0.7 3 -0.4
v -0.7 3.2 -0.4
v 0.4 3 -0.4
v 0.4 3.2 -0.4
v -0.8 2.7 -0.5
v -0.8 3 -0.5
v 0.5 2.7 -0.5
v 0.5 3 -0.5
v -0.9 2.3 -0.6
v -0.9 2.6 -0.6
v -0.9 2.7 -0.6
v 0.6 2.3 -0.6
v 0.6 2.6 -0.6
v 0.6 2.7 -0.6
v -1 1.8 -0.7
v -1 2 -0.7
v -1 2.3 -0.7
v 0.7 1.8 -0.7
v 0.7 2 -0.7
v 0.7 2.3 -0.7
v -0.4 0 0.4
v 0.1 0 0.4
v -0.4 0 -0.2
v 0.1 0 -0.2
v -1 1.8 0.9
v 0.7 1.8 0.9
v -0.6 1.8 0.5
v 0.3 1.8 0.5
v -0.4 1.8 0.4
v 0.1 1.8 0.4
v -0.4 1.8 -0.2
v 0.1 1.8 -0.2
v -0.6 1.8 -0.3
v 0.3 1.8 -0.3
v -1 1.8 -0.7
v 0.7 1.8 -0.7
v -0.6 2.8 0.5
v 0.3 2.8 0.5
v -0.6 2.8 -0.3
v 0.3 2.8 -0.3
v -0.6 1.9 0.5
v 0.3 1.9 0.5
v -0.6 1.9 -0.3
v 0.3 1.9 -0.3
v -1 2.3 0.9
v 0.7 2.3 0.9
v -0.9 2.3 0.8
v 0.6 2.3 0.8
v -0.9 2.3 -0.6
v 0.6 2.3 -0.6
v -1 2.3 -0.7
v 0.7 2.3 -0.7
v -0.9 2.7 0.8
v 0.6 2.7 0.8
v -0.8 2.7 0.7
v 0.5 2.7 0.7
v -0.8 2.7 -0.5
v 0.5 2.7 -0.5
v -0.9 2.7 -0.6
v 0.6 2.7 -0.6
v -0.8 3 0.7
v 0.5 3 0.7
v -0.7 3 0.6
v 0.4 3 0.6
v -0.7 3 -0.4
v 0.4 3 -0.4
v -0.8 3 -0.5
v 0.5 3 -0.5
v -0.7 3.2 0.6
v 0.4 3.2 0.6
v -0.6 3.2 0.5
v 0.3 3.2 0.5
v -0.6 3.2 -0.3
v 0.3 3.2 -0.3
v -0.7 3.2 -0.4
v 0.4 3.2 -0.4
v -0.6 3.4 0.5
v 0.3 3.4 0.5
v -0.5 3.4 0.4
v 0.2 3.4 0.4
v -0.5 3.4 -0.2
v 0.2 3.4 -0.2
v -0.6 3.4 -0.3
v 0.3 3.4 -0.3
v -0.5 3.5 0.4
v 0.2 3.5 0.4
v -0.4 3.5 0.3
v 0.1 3.5 0.3
v -0.4 3.5 -0.1
v 0.1 3.5 -0.1
v -0.5 3.5 -0.2
v 0.2 3.5 -0.2
v -0.4 3.7 0.3
v 0.1 3.7 0.3
v -0.3 3.7 0.2
v 1.19209e-007 3.7 0.2
v -0.3 3.7 0
v 1.19209e-007 3.7 0
v -0.4 3.7 -0.1
v 0.1 3.7 -0.1
v -0.3 3.9 0.2
v -0.2 3.9 0.2
v -0.0999999 3.9 0.2
v 1.19209e-007 3.9 0.2
v -0.3 3.9 0
v -0.2 3.9 0
v -0.0999999 3.9 0
v 1.19209e-007 3.9 0
v -0.2 4 0.2
v -0.0999999 4 0.2
v -0.2 4 0
v -0.0999999 4 0

# faces
f 3/1/1 2/1/1 1/1/1
f 4/1/1 2/1/1 3/1/1
f 5/3/1 4/3/1 3/3/1
f 6/3/1 4/3/1 5/3/1
f 9/3/1 8/3/1 7/3/1
f 10/3/1 8/3/1 9/3/1
f 11/1/1 10/1/1 9/1/1
f 12/1/1 10/1/1 11/1/1
f 15/3/1 14/3/1 13/3/1
f 16/3/1 14/3/1 15/3/1
f 19/3/1 18/3/1 17/3/1
f 20/3/1 18/3/1 19/3/1
f 23/2/1 22/2/1 21/2/1
f 24/2/1 22/2/1 23/2/1
f 27/3/1 26/3/1 25/3/1
f 28/3/1 26/3/1 27/3/1
f 31/4/1 30/4/1 29/4/1
f 32/4/1 30/4/1 31/4/1
f 35/5/1 34/5/1 33/5/1
f 36/5/1 34/5/1 35/5/1
f 39/3/1 38/3/1 37/3/1
f 40/3/1 38/3/1 39/3/1
f 43/3/1 42/3/1 41/3/1
f 44/3/1 42/3/1 43/3/1
f 47/1/1 46/1/1 45/1/1
f 48/1/1 46/1/1 47/1/1
f 49/3/1 48/3/1 47/3/1
f 50/3/1 48/3/1 49/3/1
f 51/1/1 50/1/1 49/1/1
f 52/1/1 50/1/1 51/1/1
f 53/3/1 52/3/1 51/3/1
f 54/3/1 52/3/1 53/3/1
f 55/1/2 56/1/2 57/1/2
f 57/1/2 56/1/2 58/1/2
f 57/3/2 58/3/2 59/3/2
f 59/3/2 58/3/2 60/3/2
f 59/1/2 60/1/2 61/1/2
f 61/1/2 60/1/2 62/1/2
f 61/3/2 62/3/2 63/3/2
f 63/3/2 62/3/2 64/3/2
f 65/3/2 66/3/2 67/3/2
f 67/3/2 66/3/2 68/3/2
f 69/3/2 70/3/2 71/3/2
f 71/3/2 70/3/2 72/3/2
f 73/4/2 74/4/2 75/4/2
f 75/4/2 74/4/2 76/4/2
f 77/5/2 78/5/2 79/5/2
f 79/5/2 78/5/2 80/5/2
f 81/3/2 82/3/2 83/3/2
f 83/3/2 82/3/2 84/3/2
f 85/2/2 86/2/2 87/2/2
f 87/2/2 86/2/2 88/2/2
f 89/3/2 90/3/2 91/3/2
f 91/3/2 90/3/2 92/3/2
f 93/3/2 94/3/2 95/3/2
f 95/3/2 94/3/2 96/3/2
f 97/3/2 98/3/2 99/3/2
f 99/3/2 98/3/2 100/3/2
f 99/1/2 100/1/2 101/1/2
f 101/1/2 100/1/2 102/1/2
f 103/1/2 104/1/2 105/1/2
f 105/1/2 104/1/2 106/1/2
f 105/3/2 106/3/2 107/3/2
f 107/3/2 106/3/2 108/3/2
f 112/1/3 110/1/3 109/1/3
f 113/3/3 111/3/3 110/3/3
f 113/1/3 110/1/3 112/1/3
f 114/3/3 111/3/3 113/3/3
f 118/3/3 116/3/3 115/3/3
f 119/1/3 117/1/3 116/1/3
f 119/3/3 116/3/3 118/3/3
f 120/1/3 117/1/3 119/1/3
f 123/3/3 122/3/3 121/3/3
f 124/3/3 122/3/3 123/3/3
f 127/3/3 126/3/3 125/3/3
f 128/3/3 126/3/3 127/3/3
f 131/2/3 130/2/3 129/2/3
f 132/2/3 130/2/3 131/2/3
f 137/4/3 136/4/3 135/4/3
f 138/4/3 136/4/3 137/4/3
f 139/3/3 134/3/3 133/3/3
f 140/3/3 134/3/3 139/3/3
f 143/5/3 142/5/3 141/5/3
f 144/5/3 142/5/3 143/5/3
f 147/3/3 146/3/3 145/3/3
f 149/3/3 147/3/3 145/3/3
f 149/3/3 148/3/3 147/3/3
f 150/3/3 148/3/3 149/3/3
f 151/3/3 149/3/3 145/3/3
f 152/3/3 149/3/3 151/3/3
f 158/1/3 154/1/3 153/1/3
f 159/3/3 155/3/3 154/3/3
f 159/1/3 154/1/3 158/1/3
f 160/1/3 156/1/3 155/1/3
f 160/3/3 155/3/3 159/3/3
f 161/3/3 157/3/3 156/3/3
f 161/1/3 156/1/3 160/1/3
f 162/3/3 157/3/3 161/3/3
f 163/1/4 164/1/4 168/1/4
f 164/3/4 165/3/4 169/3/4
f 168/1/4 164/1/4 169/1/4
f 165/1/4 166/1/4 170/1/4
f 169/3/4 165/3/4 170/3/4
f 166/3/4 167/3/4 171/3/4
f 170/1/4 166/1/4 171/1/4
f 171/3/4 167/3/4 172/3/4
f 173/3/4 174/3/4 175/3/4
f 173/3/4 175/3/4 177/3/4
f 175/3/4 176/3/4 177/3/4
f 177/3/4 176/3/4 178/3/4
f 173/3/4 177/3/4 179/3/4
f 179/3/4 177/3/4 180/3/4
f 181/5/4 182/5/4 183/5/4
f 183/5/4 182/5/4 184/5/4
f 187/4/4 188/4/4 189/4/4
f 189/4/4 188/4/4 190/4/4
f 185/3/4 186/3/4 191/3/4
f 191/3/4 186/3/4 192/3/4
f 193/2/4 194/2/4 195/2/4
f 195/2/4 194/2/4 196/2/4
f 197/3/4 198/3/4 199/3/4
f 199/3/4 198/3/4 200/3/4
f 201/3/4 202/3/4 203/3/4
f 203/3/4 202/3/4 204/3/4
f 205/3/4 206/3/4 208/3/4
f 206/1/4 207/1/4 209/1/4
f 208/3/4 206/3/4 209/3/4
f 209/1/4 207/1/4 210/1/4
f 211/1/4 212/1/4 214/1/4
f 212/3/4 213/3/4 215/3/4
f 214/1/4 212/1/4 215/1/4
f 215/3/4 213/3/4 216/3/4
f 219/4/5 218/4/5 217/4/5
f 220/4/5 218/4/5 219/4/5
f 223/1/5 222/1/5 221/1/5
f 224/1/5 222/1/5 223/1/5
f 225/4/5 224/4/5 223/4/5
f 226/4/5 224/4/5 225/4/5
f 227/4/5 225/4/5 223/4/5
f 228/4/5 224/4/5 226/4/5
f 229/1/5 223/1/5 221/1/5
f 229/4/5 228/4/5 227/4/5
f 229/4/5 227/4/5 223/4/5
f 230/4/5 224/4/5 228/4/5
f 230/4/5 228/4/5 229/4/5
f 230/1/5 222/1/5 224/1/5
f 231/1/5 229/1/5 221/1/5
f 231/1/5 230/1/5 229/1/5
f 232/1/5 222/1/5 230/1/5
f 232/1/5 230/1/5 231/1/5
f 235/3/5 234/3/5 233/3/5
f 236/3/5 234/3/5 235/3/5
f 237/4/6 238/4/6 239/4/6
f 239/4/6 238/4/6 240/4/6
f 241/3/6 242/3/6 243/3/6
f 243/3/6 242/3/6 244/3/6
f 241/3/6 243/3/6 245/3/6
f 244/3/6 242/3/6 246/3/6
f 241/3/6 245/3/6 247/3/6
f 245/3/6 246/3/6 247/3/6
f 246/3/6 242/3/6 248/3/6
f 247/3/6 246/3/6 248/3/6
f 249/1/6 250/1/6 251/1/6
f 251/1/6 250/1/6 252/1/6
f 249/1/6 251/1/6 253/1/6
f 252/1/6 250/1/6 254/1/6
f 249/1/6 253/1/6 255/1/6
f 253/1/6 254/1/6 255/1/6
f 254/1/6 250/1/6 256/1/6
f 255/1/6 254/1/6 256/1/6
f 257/3/6 258/3/6 259/3/6
f 259/3/6 258/3/6 260/3/6
f 257/3/6 259/3/6 261/3/6
f 260/3/6 258/3/6 262/3/6
f 257/3/6 261/3/6 263/3/6
f 261/3/6 262/3/6 263/3/6
f 262/3/6 258/3/6 264/3/6
f 263/3/6 262/3/6 264/3/6
f 265/3/6 266/3/6 267/3/6
f 267/3/6 266/3/6 268/3/6
f 265/3/6 267/3/6 269/3/6
f 268/3/6 266/3/6 270/3/6
f 265/3/6 269/3/6 271/3/6
f 269/3/6 270/3/6 271/3/6
f 270/3/6 266/3/6 272/3/6
f 271/3/6 270/3/6 272/3/6
f 273/2/6 274/2/6 275/2/6
f 275/2/6 274/2/6 276/2/6
f 273/2/6 275/2/6 277/2/6
f 276/2/6 274/2/6 278/2/6
f 273/2/6 277/2/6 279/2/6
f 277/2/6 278/2/6 279/2/6
f 278/2/6 274/2/6 280/2/6
f 279/2/6 278/2/6 280/2/6
f 281/3/6 282/3/6 283/3/6
f 283/3/6 282/3/6 284/3/6
f 281/3/6 283/3/6 285/3/6
f 284/3/6 282/3/6 286/3/6
f 281/3/6 285/3/6 287/3/6
f 285/3/6 286/3/6 287/3/6
f 286/3/6 282/3/6 288/3/6
f 287/3/6 286/3/6 288/3/6
f 289/5/6 290/5/6 291/5/6
f 291/5/6 290/5/6 292/5/6
f 289/5/6 291/5/6 293/5/6
f 292/5/6 290/5/6 294/5/6
f 289/5/6 293/5/6 295/5/6
f 293/5/6 294/5/6 295/5/6
f 294/5/6 290/5/6 296/5/6
f 295/5/6 294/5/6 296/5/6
f 297/3/6 298/3/6 301/3/6
f 301/3/6 298/3/6 302/3/6
f 299/3/6 300/3/6 303/3/6
f 303/3/6 300/3/6 304/3/6
f 305/3/6 306/3/6 307/3/6
f 307/3/6 306/3/6 308/3/6
